<svg width="79" height="79" viewBox="0 0 79 79" fill="none" xmlns="http://www.w3.org/2000/svg">
<path d="M50.0078 34.4713H52.8992V28.9338H59.6927C60.6718 28.9338 61.5037 28.5914 62.1884 27.9068C62.8731 27.2221 63.2154 26.3902 63.2154 25.4111V21.3913C63.2154 20.41 62.8731 19.5781 62.1884 18.8956C61.5037 18.2109 60.6718 17.8686 59.6927 17.8686H50.0045L50.0078 34.4713ZM52.8992 26.0424V20.7567H60.324V26.0424H52.8992ZM44.5357 42.5208C43.0289 42.5208 41.7718 42.0171 40.7644 41.0097C39.757 40.0023 39.2522 38.7376 39.25 37.2155V15.1178C39.25 13.598 39.7548 12.3332 40.7644 11.3236C41.774 10.314 43.0376 9.81033 44.5553 9.81251H66.653C68.1729 9.81251 69.4376 10.3173 70.4472 11.3269C71.4568 12.3365 71.9605 13.6001 71.9583 15.1178V37.2155C71.9583 38.7354 71.4546 40.0001 70.4472 41.0097C69.4398 42.0193 68.1827 42.523 66.6759 42.5208H57.2396V65.4167H53.9688V42.5208H44.5357ZM44.5357 39.25H66.6759C67.2625 39.25 67.7444 39.0614 68.1216 38.6842C68.4989 38.3069 68.6875 37.825 68.6875 37.2384V15.0949C68.6875 14.5083 68.4989 14.0264 68.1216 13.6492C67.7444 13.272 67.2625 13.0833 66.6759 13.0833H44.5324C43.9458 13.0833 43.4639 13.272 43.0867 13.6492C42.7095 14.0264 42.5208 14.5094 42.5208 15.0982V37.2384C42.5208 37.825 42.7095 38.3069 43.0867 38.6842C43.4639 39.0614 43.9469 39.25 44.5357 39.25ZM31.2626 65.4167C30.7982 65.4167 30.41 65.2597 30.0982 64.9457C29.7864 64.6317 29.6294 64.2435 29.6272 63.7813V58.875H9.8125V55.6042H30.3828V39.7537H9.8125V36.4829H29.0221L24.2042 22.8958H9.8125V19.625H24.9728C25.4678 19.625 25.917 19.7755 26.3204 20.0764C26.7238 20.3773 27.004 20.772 27.161 21.2604L33.6536 39.7537V63.7813C33.6536 64.2457 33.4966 64.6339 33.1826 64.9457C32.8686 65.2575 32.4805 65.4145 32.0182 65.4167H31.2626ZM22.4706 51.3259C23.4889 51.3259 24.3492 50.9705 25.0513 50.2596C25.7535 49.5466 26.1045 48.682 26.1045 47.6659C26.1045 46.6475 25.748 45.7862 25.035 45.0819C24.3241 44.3819 23.4595 44.032 22.4412 44.032C21.4229 44.032 20.5626 44.3874 19.8605 45.0983C19.1584 45.8091 18.8073 46.6737 18.8073 47.692C18.8073 48.7103 19.1638 49.5717 19.8769 50.276C20.5877 50.9759 21.4523 51.3259 22.4706 51.3259Z" fill="#404040"/>
</svg>
