<svg width="58" height="58" viewBox="0 0 58 58" fill="none" xmlns="http://www.w3.org/2000/svg">
<path fill-rule="evenodd" clip-rule="evenodd" d="M24.9836 12H33.0164C36.6069 12 39.4512 12 41.6762 12.2973C43.9657 12.6042 45.8195 13.2493 47.2827 14.7025C48.7439 16.1577 49.3925 18.0015 49.7011 20.2785C50 22.4934 50 25.3202 50 28.8912V29.1088C50 32.6798 50 35.5086 49.7011 37.7215C49.3925 39.9985 48.7439 41.8423 47.2827 43.2975C45.8195 44.7507 43.9657 45.3958 41.6762 45.7027C39.4492 46 36.6069 46 33.0164 46H24.9836C21.3931 46 18.5488 46 16.3238 45.7027C14.0343 45.3958 12.1805 44.7507 10.7173 43.2975C9.25609 41.8423 8.60753 39.9985 8.29888 37.7215C8 35.5066 8 32.6798 8 29.1088V28.8912C8 25.3202 8 22.4914 8.29888 20.2785C8.60753 18.0015 9.25609 16.1577 10.7173 14.7025C12.1805 13.2493 14.0343 12.6042 16.3238 12.2973C18.5508 12 21.3931 12 24.9836 12ZM16.7126 15.1863C14.7473 15.4486 13.6143 15.9421 12.786 16.7639C11.9617 17.5857 11.4655 18.7126 11.2018 20.6671C10.9322 22.6643 10.9283 25.295 10.9283 29C10.9283 32.705 10.9322 35.3376 11.2018 37.3349C11.4655 39.2874 11.9617 40.4143 12.788 41.2361C13.6143 42.0579 14.7473 42.5514 16.7126 42.8137C18.7207 43.0818 21.3658 43.0857 25.0911 43.0857H32.905C36.6303 43.0857 39.2773 43.0818 41.2855 42.8137C43.2487 42.5514 44.3818 42.0579 45.2081 41.2361C46.0344 40.4143 46.5306 39.2874 46.7943 37.3329C47.0639 35.3357 47.0678 32.705 47.0678 29C47.0678 25.295 47.0639 22.6643 46.7943 20.6651C46.5306 18.7126 46.0344 17.5857 45.2081 16.7639C44.3818 15.9421 43.2487 15.4486 41.2835 15.1863C39.2773 14.9182 36.6303 14.9143 32.905 14.9143H25.0911C21.3658 14.9143 18.7227 14.9182 16.7126 15.1863ZM16.15 20.296C16.3987 19.9993 16.7557 19.813 17.1426 19.778C17.5294 19.743 17.9144 19.8623 18.2128 20.1095L22.4363 23.6047C24.2589 25.1143 25.5228 26.1595 26.5933 26.8434C27.6267 27.504 28.328 27.7274 29.002 27.7274C29.6759 27.7274 30.3772 27.5059 31.4106 26.8434C32.4792 26.1595 33.745 25.1143 35.5676 23.6047L39.7852 20.1075C39.9331 19.9851 40.1038 19.8928 40.2876 19.8359C40.4713 19.7791 40.6645 19.7588 40.8562 19.7762C41.0478 19.7936 41.2341 19.8484 41.4045 19.9374C41.5749 20.0264 41.7259 20.1479 41.8491 20.295C41.9722 20.4421 42.065 20.6119 42.1222 20.7946C42.1793 20.9774 42.1998 21.1696 42.1823 21.3602C42.1647 21.5508 42.1097 21.7361 42.0202 21.9055C41.9306 22.075 41.8085 22.2252 41.6606 22.3477L37.3707 25.9031C35.638 27.3408 34.2353 28.5026 32.9949 29.2953C31.7056 30.121 30.4495 30.6417 29.002 30.6417C27.5544 30.6417 26.2983 30.1191 25.0071 29.2953C23.7686 28.5026 22.366 27.3389 20.6332 25.905L16.3414 22.3496C16.1934 22.2271 16.0711 22.0767 15.9816 21.9072C15.8921 21.7376 15.837 21.5522 15.8196 21.3615C15.8022 21.1707 15.8227 20.9785 15.8801 20.7956C15.9374 20.6128 16.0305 20.443 16.1539 20.296" fill="#404040"/>
</svg>
