<svg width="58" height="58" viewBox="0 0 58 58" fill="none" xmlns="http://www.w3.org/2000/svg">
<path fill-rule="evenodd" clip-rule="evenodd" d="M24.0315 7.85547H33.9688C38.4107 7.85547 41.9293 7.85547 44.6819 8.22522C47.5142 8.60705 49.8077 9.40938 51.6177 11.2171C53.4254 13.0271 54.2277 15.3206 54.6096 18.1529C54.9793 20.9079 54.9793 24.4241 54.9793 28.866V29.1366C54.9793 33.5785 54.9793 37.0971 54.6096 39.8497C54.2277 42.682 53.4254 44.9755 51.6177 46.7855C49.8077 48.5932 47.5142 49.3955 44.6819 49.7774C41.9269 50.1471 38.4107 50.1471 33.9688 50.1471H24.0315C19.5897 50.1471 16.071 50.1471 13.3184 49.7774C10.4861 49.3955 8.19266 48.5932 6.38258 46.7855C4.57491 44.9755 3.77258 42.682 3.39075 39.8497C3.021 37.0947 3.021 33.5785 3.021 29.1366V28.866C3.021 24.4241 3.021 20.9055 3.39075 18.1529C3.77258 15.3206 4.57491 13.0271 6.38258 11.2171C8.19266 9.40938 10.4861 8.60705 13.3184 8.22522C16.0734 7.85547 19.5897 7.85547 24.0315 7.85547ZM13.7993 11.8188C11.3682 12.1451 9.9665 12.7589 8.94183 13.7811C7.922 14.8034 7.30816 16.2051 6.98191 18.6362C6.64841 21.1206 6.64358 24.3927 6.64358 29.0013C6.64358 33.6099 6.64841 36.8845 6.98191 39.3688C7.30816 41.7976 7.922 43.1992 8.94425 44.2215C9.9665 45.2437 11.3682 45.8576 13.7993 46.1838C16.2837 46.5173 19.5558 46.5221 24.1644 46.5221H33.8311C38.4397 46.5221 41.7142 46.5173 44.1986 46.1838C46.6273 45.8576 48.029 45.2437 49.0513 44.2215C50.0735 43.1992 50.6873 41.7976 51.0136 39.3664C51.3471 36.882 51.3519 33.6099 51.3519 29.0013C51.3519 24.3927 51.3471 21.1206 51.0136 18.6338C50.6873 16.2051 50.0735 14.8034 49.0513 13.7811C48.029 12.7589 46.6273 12.1451 44.1962 11.8188C41.7142 11.4853 38.4397 11.4805 33.8311 11.4805H24.1644C19.5558 11.4805 16.2861 11.4853 13.7993 11.8188ZM13.1033 18.1746C13.4111 17.8056 13.8527 17.5738 14.3313 17.5303C14.8099 17.4868 15.2861 17.6351 15.6553 17.9426L20.8802 22.2902C23.1349 24.168 24.6985 25.4681 26.0228 26.3188C27.3012 27.1405 28.1688 27.4184 29.0026 27.4184C29.8363 27.4184 30.7039 27.1429 31.9823 26.3188C33.3042 25.4681 34.8702 24.168 37.125 22.2902L42.3426 17.9402C42.5255 17.7879 42.7367 17.6731 42.964 17.6024C43.1914 17.5316 43.4304 17.5064 43.6675 17.528C43.9046 17.5497 44.1351 17.6178 44.3458 17.7286C44.5566 17.8393 44.7435 17.9905 44.8958 18.1734C45.0481 18.3564 45.1629 18.5676 45.2337 18.7949C45.3044 19.0222 45.3296 19.2612 45.308 19.4983C45.2863 19.7354 45.2182 19.9659 45.1074 20.1767C44.9967 20.3874 44.8455 20.5743 44.6626 20.7266L39.3556 25.1491C37.212 26.9375 35.4768 28.3826 33.9422 29.3686C32.3472 30.3957 30.7933 31.0434 29.0026 31.0434C27.2118 31.0434 25.6579 30.3933 24.0605 29.3686C22.5283 28.3826 20.7932 26.935 18.6496 25.1516L13.3402 20.7291C13.1571 20.5766 13.0058 20.3897 12.8951 20.1787C12.7843 19.9678 12.7162 19.7372 12.6946 19.4999C12.6731 19.2627 12.6985 19.0235 12.7695 18.7961C12.8404 18.5687 12.9555 18.3575 13.1082 18.1746" fill="#404040"/>
</svg>
