<svg width="72" height="72" viewBox="0 0 72 72" fill="none" xmlns="http://www.w3.org/2000/svg">
<path d="M26.0754 60V57H34.4994V43.431C30.1994 42.771 26.8164 40.896 24.3504 37.806C21.8844 34.716 20.6514 31.114 20.6514 27V12H51.3474V27C51.3474 31.116 50.1144 34.718 47.6484 37.806C45.1824 40.894 41.7994 42.769 37.4994 43.431V57H45.9234V60H26.0754ZM44.2164 37.026C46.5464 34.71 47.8884 31.868 48.2424 28.5H23.7564C24.1104 31.87 25.4534 34.712 27.7854 37.026C30.1174 39.34 32.8554 40.498 35.9994 40.5C39.1434 40.502 41.8824 39.344 44.2164 37.026ZM23.6514 25.5H48.3474V15H23.6544L23.6514 25.5Z" fill="#404040"/>
</svg>
