<svg width="343" height="9" viewBox="0 0 343 9" fill="none" xmlns="http://www.w3.org/2000/svg">
<rect width="1" height="54" rx="0.5" transform="matrix(0 1 1 0 34 4)" fill="black"/>
<circle cx="4.5" cy="4.5" r="4.5" transform="matrix(0 1 1 0 16 0)" fill="black"/>
<circle cx="3.5" cy="3.5" r="3.5" transform="matrix(0 1 1 0 7 1)" fill="black"/>
<circle cx="2.5" cy="2.5" r="2.5" transform="matrix(0 1 1 0 0 2)" fill="black"/>
<rect x="309" y="4" width="1" height="54" rx="0.5" transform="rotate(90 309 4)" fill="black"/>
<circle cx="322.5" cy="4.5" r="4.5" transform="rotate(90 322.5 4.5)" fill="black"/>
<circle cx="332.5" cy="4.5" r="3.5" transform="rotate(90 332.5 4.5)" fill="black"/>
<circle cx="340.5" cy="4.5" r="2.5" transform="rotate(90 340.5 4.5)" fill="black"/>
</svg>
