<svg width="58" height="58" viewBox="0 0 58 58" fill="none" xmlns="http://www.w3.org/2000/svg">
<path d="M35.7523 26.1753H37.8925V22.0635H42.921C43.6458 22.0635 44.2615 21.8093 44.7683 21.3009C45.2751 20.7925 45.5285 20.1748 45.5285 19.4478V16.4629C45.5285 15.7343 45.2751 15.1166 44.7683 14.6098C44.2615 14.1014 43.6458 13.8472 42.921 13.8472H35.7499L35.7523 26.1753ZM37.8925 19.9165V15.9917H43.3883V19.9165H37.8925ZM31.7019 32.1524C30.5866 32.1524 29.6561 31.7784 28.9104 31.0303C28.1647 30.2823 27.7911 29.3432 27.7895 28.213V11.8046C27.7895 10.6761 28.1631 9.73697 28.9104 8.9873C29.6577 8.23764 30.5931 7.86362 31.7164 7.86524H48.0731C49.198 7.86524 50.1342 8.24007 50.8815 8.98973C51.6288 9.7394 52.0016 10.6777 52 11.8046V28.213C52 29.3415 51.6272 30.2806 50.8815 31.0303C50.1358 31.78 49.2053 32.154 48.09 32.1524H41.1053V49.1534H38.6842V32.1524H31.7019ZM31.7019 29.7237H48.09C48.5242 29.7237 48.8809 29.5836 49.1601 29.3035C49.4393 29.0234 49.5789 28.6656 49.5789 28.23V11.7876C49.5789 11.3521 49.4393 10.9942 49.1601 10.7141C48.8809 10.434 48.5242 10.294 48.09 10.294H31.6995C31.2653 10.294 30.9086 10.434 30.6294 10.7141C30.3501 10.9942 30.2105 11.3529 30.2105 11.79V28.23C30.2105 28.6656 30.3501 29.0234 30.6294 29.3035C30.9086 29.5836 31.2661 29.7237 31.7019 29.7237ZM21.8773 49.1534C21.5335 49.1534 21.2462 49.0368 21.0154 48.8036C20.7846 48.5705 20.6683 48.2823 20.6667 47.939V44.2959H6V41.8672H21.226V30.0977H6V27.669H20.2188L16.6526 17.5801H6V15.1514H17.2216C17.588 15.1514 17.9205 15.2631 18.2191 15.4865C18.5176 15.71 18.7251 16.003 18.8413 16.3657L23.6471 30.0977V47.939C23.6471 48.2839 23.5308 48.5721 23.2984 48.8036C23.066 49.0352 22.7787 49.1518 22.4365 49.1534H21.8773ZM15.3695 38.6905C16.1232 38.6905 16.76 38.4266 17.2797 37.8987C17.7994 37.3693 18.0593 36.7273 18.0593 35.9727C18.0593 35.2166 17.7954 34.577 17.2676 34.0541C16.7414 33.5343 16.1014 33.2744 15.3477 33.2744C14.5939 33.2744 13.9572 33.5384 13.4375 34.0662C12.9178 34.594 12.6579 35.236 12.6579 35.9922C12.6579 36.7483 12.9218 37.3879 13.4496 37.9109C13.9758 38.4306 14.6157 38.6905 15.3695 38.6905Z" fill="#404040"/>
</svg>
