<svg width="329" height="228" viewBox="0 0 329 228" fill="none" xmlns="http://www.w3.org/2000/svg">
<path d="M104.493 16V6.4L105.543 7.45H102.393V5.5H106.923V16H104.493ZM113.442 16.18C112.482 16.18 111.647 15.98 110.937 15.58C110.237 15.18 109.697 14.595 109.317 13.825C108.937 13.055 108.747 12.105 108.747 10.975C108.747 9.765 108.972 8.74 109.422 7.9C109.882 7.06 110.512 6.42 111.312 5.98C112.122 5.54 113.052 5.32 114.102 5.32C114.662 5.32 115.197 5.38 115.707 5.5C116.217 5.62 116.657 5.8 117.027 6.04L116.127 7.825C115.837 7.625 115.527 7.49 115.197 7.42C114.867 7.34 114.522 7.3 114.162 7.3C113.252 7.3 112.532 7.575 112.002 8.125C111.472 8.675 111.207 9.49 111.207 10.57C111.207 10.75 111.207 10.95 111.207 11.17C111.217 11.39 111.247 11.61 111.297 11.83L110.622 11.2C110.812 10.81 111.057 10.485 111.357 10.225C111.657 9.955 112.012 9.755 112.422 9.625C112.842 9.485 113.302 9.415 113.802 9.415C114.482 9.415 115.092 9.55 115.632 9.82C116.172 10.09 116.602 10.47 116.922 10.96C117.252 11.45 117.417 12.025 117.417 12.685C117.417 13.395 117.237 14.015 116.877 14.545C116.527 15.065 116.052 15.47 115.452 15.76C114.862 16.04 114.192 16.18 113.442 16.18ZM113.307 14.365C113.647 14.365 113.947 14.305 114.207 14.185C114.477 14.055 114.687 13.87 114.837 13.63C114.987 13.39 115.062 13.115 115.062 12.805C115.062 12.325 114.897 11.945 114.567 11.665C114.247 11.375 113.817 11.23 113.277 11.23C112.917 11.23 112.602 11.3 112.332 11.44C112.062 11.57 111.847 11.755 111.687 11.995C111.537 12.225 111.462 12.495 111.462 12.805C111.462 13.105 111.537 13.375 111.687 13.615C111.837 13.845 112.047 14.03 112.317 14.17C112.587 14.3 112.917 14.365 113.307 14.365ZM119.678 10.735C119.278 10.735 118.933 10.6 118.643 10.33C118.363 10.05 118.223 9.695 118.223 9.265C118.223 8.835 118.363 8.49 118.643 8.23C118.933 7.96 119.278 7.825 119.678 7.825C120.088 7.825 120.433 7.96 120.713 8.23C120.993 8.49 121.133 8.835 121.133 9.265C121.133 9.695 120.993 10.05 120.713 10.33C120.433 10.6 120.088 10.735 119.678 10.735ZM119.678 16.12C119.278 16.12 118.933 15.985 118.643 15.715C118.363 15.435 118.223 15.08 118.223 14.65C118.223 14.22 118.363 13.875 118.643 13.615C118.933 13.345 119.278 13.21 119.678 13.21C120.088 13.21 120.433 13.345 120.713 13.615C120.993 13.875 121.133 14.22 121.133 14.65C121.133 15.08 120.993 15.435 120.713 15.715C120.433 15.985 120.088 16.12 119.678 16.12ZM126.724 16.18C125.864 16.18 125.094 15.97 124.414 15.55C123.734 15.12 123.199 14.5 122.809 13.69C122.419 12.88 122.224 11.9 122.224 10.75C122.224 9.6 122.419 8.62 122.809 7.81C123.199 7 123.734 6.385 124.414 5.965C125.094 5.535 125.864 5.32 126.724 5.32C127.594 5.32 128.364 5.535 129.034 5.965C129.714 6.385 130.249 7 130.639 7.81C131.029 8.62 131.224 9.6 131.224 10.75C131.224 11.9 131.029 12.88 130.639 13.69C130.249 14.5 129.714 15.12 129.034 15.55C128.364 15.97 127.594 16.18 126.724 16.18ZM126.724 14.125C127.134 14.125 127.489 14.01 127.789 13.78C128.099 13.55 128.339 13.185 128.509 12.685C128.689 12.185 128.779 11.54 128.779 10.75C128.779 9.96 128.689 9.315 128.509 8.815C128.339 8.315 128.099 7.95 127.789 7.72C127.489 7.49 127.134 7.375 126.724 7.375C126.324 7.375 125.969 7.49 125.659 7.72C125.359 7.95 125.119 8.315 124.939 8.815C124.769 9.315 124.684 9.96 124.684 10.75C124.684 11.54 124.769 12.185 124.939 12.685C125.119 13.185 125.359 13.55 125.659 13.78C125.969 14.01 126.324 14.125 126.724 14.125ZM136.904 16.18C136.044 16.18 135.274 15.97 134.594 15.55C133.914 15.12 133.379 14.5 132.989 13.69C132.599 12.88 132.404 11.9 132.404 10.75C132.404 9.6 132.599 8.62 132.989 7.81C133.379 7 133.914 6.385 134.594 5.965C135.274 5.535 136.044 5.32 136.904 5.32C137.774 5.32 138.544 5.535 139.214 5.965C139.894 6.385 140.429 7 140.819 7.81C141.209 8.62 141.404 9.6 141.404 10.75C141.404 11.9 141.209 12.88 140.819 13.69C140.429 14.5 139.894 15.12 139.214 15.55C138.544 15.97 137.774 16.18 136.904 16.18ZM136.904 14.125C137.314 14.125 137.669 14.01 137.969 13.78C138.279 13.55 138.519 13.185 138.689 12.685C138.869 12.185 138.959 11.54 138.959 10.75C138.959 9.96 138.869 9.315 138.689 8.815C138.519 8.315 138.279 7.95 137.969 7.72C137.669 7.49 137.314 7.375 136.904 7.375C136.504 7.375 136.149 7.49 135.839 7.72C135.539 7.95 135.299 8.315 135.119 8.815C134.949 9.315 134.864 9.96 134.864 10.75C134.864 11.54 134.949 12.185 135.119 12.685C135.299 13.185 135.539 13.55 135.839 13.78C136.149 14.01 136.504 14.125 136.904 14.125ZM35.3891 38.18C34.5791 38.18 33.8241 38.05 33.1241 37.79C32.4341 37.52 31.8341 37.14 31.3241 36.65C30.8141 36.16 30.4141 35.585 30.1241 34.925C29.8441 34.265 29.7041 33.54 29.7041 32.75C29.7041 31.96 29.8441 31.235 30.1241 30.575C30.4141 29.915 30.8141 29.34 31.3241 28.85C31.8441 28.36 32.4491 27.985 33.1391 27.725C33.8291 27.455 34.5841 27.32 35.4041 27.32C36.3141 27.32 37.1341 27.48 37.8641 27.8C38.6041 28.11 39.2241 28.57 39.7241 29.18L38.1641 30.62C37.8041 30.21 37.4041 29.905 36.9641 29.705C36.5241 29.495 36.0441 29.39 35.5241 29.39C35.0341 29.39 34.5841 29.47 34.1741 29.63C33.7641 29.79 33.4091 30.02 33.1091 30.32C32.8091 30.62 32.5741 30.975 32.4041 31.385C32.2441 31.795 32.1641 32.25 32.1641 32.75C32.1641 33.25 32.2441 33.705 32.4041 34.115C32.5741 34.525 32.8091 34.88 33.1091 35.18C33.4091 35.48 33.7641 35.71 34.1741 35.87C34.5841 36.03 35.0341 36.11 35.5241 36.11C36.0441 36.11 36.5241 36.01 36.9641 35.81C37.4041 35.6 37.8041 35.285 38.1641 34.865L39.7241 36.305C39.2241 36.915 38.6041 37.38 37.8641 37.7C37.1341 38.02 36.3091 38.18 35.3891 38.18ZM41.3079 38V27.5H49.7829V29.435H43.7229V31.595H46.6329C47.9029 31.595 48.8679 31.86 49.5279 32.39C50.1979 32.92 50.5329 33.69 50.5329 34.7C50.5329 35.74 50.1629 36.55 49.4229 37.13C48.6829 37.71 47.6379 38 46.2879 38H41.3079ZM43.7229 36.2H46.1529C46.7729 36.2 47.2479 36.08 47.5779 35.84C47.9079 35.59 48.0729 35.23 48.0729 34.76C48.0729 33.84 47.4329 33.38 46.1529 33.38H43.7229V36.2ZM57.4071 38.18C56.5771 38.18 55.8071 38.045 55.0971 37.775C54.3971 37.505 53.7871 37.125 53.2671 36.635C52.7571 36.145 52.3571 35.57 52.0671 34.91C51.7871 34.25 51.6471 33.53 51.6471 32.75C51.6471 31.97 51.7871 31.25 52.0671 30.59C52.3571 29.93 52.7621 29.355 53.2821 28.865C53.8021 28.375 54.4121 27.995 55.1121 27.725C55.8121 27.455 56.5721 27.32 57.3921 27.32C58.2221 27.32 58.9821 27.455 59.6721 27.725C60.3721 27.995 60.9771 28.375 61.4871 28.865C62.0071 29.355 62.4121 29.93 62.7021 30.59C62.9921 31.24 63.1371 31.96 63.1371 32.75C63.1371 33.53 62.9921 34.255 62.7021 34.925C62.4121 35.585 62.0071 36.16 61.4871 36.65C60.9771 37.13 60.3721 37.505 59.6721 37.775C58.9821 38.045 58.2271 38.18 57.4071 38.18ZM57.3921 36.11C57.8621 36.11 58.2921 36.03 58.6821 35.87C59.0821 35.71 59.4321 35.48 59.7321 35.18C60.0321 34.88 60.2621 34.525 60.4221 34.115C60.5921 33.705 60.6771 33.25 60.6771 32.75C60.6771 32.25 60.5921 31.795 60.4221 31.385C60.2621 30.975 60.0321 30.62 59.7321 30.32C59.4421 30.02 59.0971 29.79 58.6971 29.63C58.2971 29.47 57.8621 29.39 57.3921 29.39C56.9221 29.39 56.4871 29.47 56.0871 29.63C55.6971 29.79 55.3521 30.02 55.0521 30.32C54.7521 30.62 54.5171 30.975 54.3471 31.385C54.1871 31.795 54.1071 32.25 54.1071 32.75C54.1071 33.24 54.1871 33.695 54.3471 34.115C54.5171 34.525 54.7471 34.88 55.0371 35.18C55.3371 35.48 55.6871 35.71 56.0871 35.87C56.4871 36.03 56.9221 36.11 57.3921 36.11ZM65.0091 38V27.5H69.5541C70.4941 27.5 71.3041 27.655 71.9841 27.965C72.6641 28.265 73.1891 28.7 73.5591 29.27C73.9291 29.84 74.1141 30.52 74.1141 31.31C74.1141 32.09 73.9291 32.765 73.5591 33.335C73.1891 33.905 72.6641 34.345 71.9841 34.655C71.3041 34.955 70.4941 35.105 69.5541 35.105H66.3591L67.4391 34.01V38H65.0091ZM67.4391 34.28L66.3591 33.125H69.4191C70.1691 33.125 70.7291 32.965 71.0991 32.645C71.4691 32.325 71.6541 31.88 71.6541 31.31C71.6541 30.73 71.4691 30.28 71.0991 29.96C70.7291 29.64 70.1691 29.48 69.4191 29.48H66.3591L67.4391 28.325V34.28ZM80.1116 38V27.5H87.5216L87.5066 29.48H81.9566L82.5116 28.925L82.5266 38H80.1116ZM92.9589 38.18C92.1289 38.18 91.3589 38.045 90.6489 37.775C89.9489 37.505 89.3389 37.125 88.8189 36.635C88.3089 36.145 87.9089 35.57 87.6189 34.91C87.3389 34.25 87.1989 33.53 87.1989 32.75C87.1989 31.97 87.3389 31.25 87.6189 30.59C87.9089 29.93 88.3139 29.355 88.8339 28.865C89.3539 28.375 89.9639 27.995 90.6639 27.725C91.3639 27.455 92.1239 27.32 92.9439 27.32C93.7739 27.32 94.5339 27.455 95.2239 27.725C95.9239 27.995 96.5289 28.375 97.0389 28.865C97.5589 29.355 97.9639 29.93 98.2539 30.59C98.5439 31.24 98.6889 31.96 98.6889 32.75C98.6889 33.53 98.5439 34.255 98.2539 34.925C97.9639 35.585 97.5589 36.16 97.0389 36.65C96.5289 37.13 95.9239 37.505 95.2239 37.775C94.5339 38.045 93.7789 38.18 92.9589 38.18ZM92.9439 36.11C93.4139 36.11 93.8439 36.03 94.2339 35.87C94.6339 35.71 94.9839 35.48 95.2839 35.18C95.5839 34.88 95.8139 34.525 95.9739 34.115C96.1439 33.705 96.2289 33.25 96.2289 32.75C96.2289 32.25 96.1439 31.795 95.9739 31.385C95.8139 30.975 95.5839 30.62 95.2839 30.32C94.9939 30.02 94.6489 29.79 94.2489 29.63C93.8489 29.47 93.4139 29.39 92.9439 29.39C92.4739 29.39 92.0389 29.47 91.6389 29.63C91.2489 29.79 90.9039 30.02 90.6039 30.32C90.3039 30.62 90.0689 30.975 89.8989 31.385C89.7389 31.795 89.6589 32.25 89.6589 32.75C89.6589 33.24 89.7389 33.695 89.8989 34.115C90.0689 34.525 90.2989 34.88 90.5889 35.18C90.8889 35.48 91.2389 35.71 91.6389 35.87C92.0389 36.03 92.4739 36.11 92.9439 36.11ZM105.526 38.18C104.716 38.18 103.961 38.05 103.261 37.79C102.571 37.52 101.971 37.14 101.461 36.65C100.951 36.16 100.551 35.585 100.261 34.925C99.9809 34.265 99.8409 33.54 99.8409 32.75C99.8409 31.96 99.9809 31.235 100.261 30.575C100.551 29.915 100.951 29.34 101.461 28.85C101.981 28.36 102.586 27.985 103.276 27.725C103.966 27.455 104.721 27.32 105.541 27.32C106.451 27.32 107.271 27.48 108.001 27.8C108.741 28.11 109.361 28.57 109.861 29.18L108.301 30.62C107.941 30.21 107.541 29.905 107.101 29.705C106.661 29.495 106.181 29.39 105.661 29.39C105.171 29.39 104.721 29.47 104.311 29.63C103.901 29.79 103.546 30.02 103.246 30.32C102.946 30.62 102.711 30.975 102.541 31.385C102.381 31.795 102.301 32.25 102.301 32.75C102.301 33.25 102.381 33.705 102.541 34.115C102.711 34.525 102.946 34.88 103.246 35.18C103.546 35.48 103.901 35.71 104.311 35.87C104.721 36.03 105.171 36.11 105.661 36.11C106.181 36.11 106.661 36.01 107.101 35.81C107.541 35.6 107.941 35.285 108.301 34.865L109.861 36.305C109.361 36.915 108.741 37.38 108.001 37.7C107.271 38.02 106.446 38.18 105.526 38.18ZM113.607 38V28.925L114.162 29.48H110.262V27.5H119.367V29.48H115.467L116.007 28.925V38H113.607ZM123.128 31.73H128.183V33.62H123.128V31.73ZM123.308 36.05H129.023V38H120.893V27.5H128.828V29.45H123.308V36.05ZM130.986 38V27.5H133.401V34.34L138.411 27.5H140.691V38H138.291V31.175L133.281 38H130.986ZM135.831 26.825C134.831 26.825 134.096 26.625 133.626 26.225C133.166 25.825 132.931 25.26 132.921 24.53H134.586C134.596 24.89 134.701 25.165 134.901 25.355C135.111 25.535 135.421 25.625 135.831 25.625C136.231 25.625 136.536 25.535 136.746 25.355C136.956 25.165 137.066 24.89 137.076 24.53H138.741C138.731 25.26 138.491 25.825 138.021 26.225C137.551 26.625 136.821 26.825 135.831 26.825Z" fill="black"/>
<circle cx="162" cy="8" r="6" fill="white" stroke="#DF9383" stroke-width="4"/>
<rect x="161.5" y="24" width="1" height="24" fill="#B4B8C1"/>
<path d="M79.7093 122V111.5H88.1843V113.435H82.1243V115.595H85.0343C86.3043 115.595 87.2693 115.86 87.9293 116.39C88.5993 116.92 88.9343 117.69 88.9343 118.7C88.9343 119.74 88.5643 120.55 87.8243 121.13C87.0843 121.71 86.0393 122 84.6893 122H79.7093ZM82.1243 120.2H84.5543C85.1743 120.2 85.6493 120.08 85.9793 119.84C86.3093 119.59 86.4743 119.23 86.4743 118.76C86.4743 117.84 85.8343 117.38 84.5543 117.38H82.1243V120.2ZM89.5399 122L94.2199 111.5H96.6199L101.315 122H98.7649L94.9249 112.73H95.8849L92.0299 122H89.5399ZM91.8799 119.75L92.5249 117.905H97.9249L98.5849 119.75H91.8799ZM109.907 111.5H112.337V122H109.907V111.5ZM105.137 122H102.707V111.5H105.137V122ZM110.087 117.695H104.957V115.64H110.087V117.695ZM121.763 122L118.493 116.945L120.458 115.76L124.523 122H121.763ZM114.938 122V111.5H117.353V122H114.938ZM116.648 117.77V115.745H120.308V117.77H116.648ZM120.683 117.02L118.448 116.75L121.853 111.5H124.418L120.683 117.02ZM127.896 115.73H132.951V117.62H127.896V115.73ZM128.076 120.05H133.791V122H125.661V111.5H133.596V113.45H128.076V120.05ZM138.019 122V112.925L138.574 113.48H134.674V111.5H143.779V113.48H139.879L140.419 112.925V122H138.019Z" fill="black"/>
<circle cx="164" cy="114" r="6" fill="white" stroke="#DF9383" stroke-width="4"/>
<rect x="163.5" y="130" width="1" height="24" fill="#B4B8C1"/>
<circle cx="164" cy="61" r="6" fill="white" stroke="#DF9383" stroke-width="4"/>
<rect x="163.5" y="77" width="1" height="24" fill="#B4B8C1"/>
<path d="M185.305 69V58.5H187.72V67.02H192.4V58.5H194.815V69H185.305ZM194.08 71.22V68.43L194.605 69H192.4V67.02H196.315V71.22H194.08ZM200.152 62.73H205.207V64.62H200.152V62.73ZM200.332 67.05H206.047V69H197.917V58.5H205.852V60.45H200.332V67.05ZM208.01 69V58.5H212.555C213.495 58.5 214.305 58.655 214.985 58.965C215.665 59.265 216.19 59.7 216.56 60.27C216.93 60.84 217.115 61.52 217.115 62.31C217.115 63.09 216.93 63.765 216.56 64.335C216.19 64.905 215.665 65.345 214.985 65.655C214.305 65.955 213.495 66.105 212.555 66.105H209.36L210.44 65.01V69H208.01ZM210.44 65.28L209.36 64.125H212.42C213.17 64.125 213.73 63.965 214.1 63.645C214.47 63.325 214.655 62.88 214.655 62.31C214.655 61.73 214.47 61.28 214.1 60.96C213.73 60.64 213.17 60.48 212.42 60.48H209.36L210.44 59.325V65.28ZM220.953 62.73H226.008V64.62H220.953V62.73ZM221.133 67.05H226.848V69H218.718V58.5H226.653V60.45H221.133V67.05ZM228.811 69V58.5H230.821L235.291 65.91H234.226L238.621 58.5H240.631L240.646 69H238.366L238.351 61.995H238.786L235.261 67.89H234.181L230.581 61.995H231.091V69H228.811ZM248.279 69.18C247.449 69.18 246.679 69.045 245.969 68.775C245.269 68.505 244.659 68.125 244.139 67.635C243.629 67.145 243.229 66.57 242.939 65.91C242.659 65.25 242.519 64.53 242.519 63.75C242.519 62.97 242.659 62.25 242.939 61.59C243.229 60.93 243.634 60.355 244.154 59.865C244.674 59.375 245.284 58.995 245.984 58.725C246.684 58.455 247.444 58.32 248.264 58.32C249.094 58.32 249.854 58.455 250.544 58.725C251.244 58.995 251.849 59.375 252.359 59.865C252.879 60.355 253.284 60.93 253.574 61.59C253.864 62.24 254.009 62.96 254.009 63.75C254.009 64.53 253.864 65.255 253.574 65.925C253.284 66.585 252.879 67.16 252.359 67.65C251.849 68.13 251.244 68.505 250.544 68.775C249.854 69.045 249.099 69.18 248.279 69.18ZM248.264 67.11C248.734 67.11 249.164 67.03 249.554 66.87C249.954 66.71 250.304 66.48 250.604 66.18C250.904 65.88 251.134 65.525 251.294 65.115C251.464 64.705 251.549 64.25 251.549 63.75C251.549 63.25 251.464 62.795 251.294 62.385C251.134 61.975 250.904 61.62 250.604 61.32C250.314 61.02 249.969 60.79 249.569 60.63C249.169 60.47 248.734 60.39 248.264 60.39C247.794 60.39 247.359 60.47 246.959 60.63C246.569 60.79 246.224 61.02 245.924 61.32C245.624 61.62 245.389 61.975 245.219 62.385C245.059 62.795 244.979 63.25 244.979 63.75C244.979 64.24 245.059 64.695 245.219 65.115C245.389 65.525 245.619 65.88 245.909 66.18C246.209 66.48 246.559 66.71 246.959 66.87C247.359 67.03 247.794 67.11 248.264 67.11ZM263.081 58.5H265.511V69H263.081V58.5ZM258.311 69H255.881V58.5H258.311V69ZM263.261 64.695H258.131V62.64H263.261V64.695ZM268.142 69V58.5H270.557V65.34L275.567 58.5H277.847V69H275.447V62.175L270.437 69H268.142ZM286.446 69V65.685L287.046 66.21H284.166C283.256 66.21 282.471 66.06 281.811 65.76C281.151 65.46 280.646 65.025 280.296 64.455C279.946 63.885 279.771 63.205 279.771 62.415C279.771 61.595 279.956 60.895 280.326 60.315C280.706 59.725 281.236 59.275 281.916 58.965C282.596 58.655 283.396 58.5 284.316 58.5H288.846V69H286.446ZM279.801 69L282.411 65.235H284.871L282.366 69H279.801ZM286.446 64.905V59.85L287.046 60.48H284.376C283.686 60.48 283.156 60.64 282.786 60.96C282.426 61.28 282.246 61.755 282.246 62.385C282.246 62.995 282.421 63.465 282.771 63.795C283.121 64.125 283.636 64.29 284.316 64.29H287.046L286.446 64.905Z" fill="black"/>
<circle cx="165" cy="170" r="6" fill="white" stroke="#DF9383" stroke-width="4"/>
<path d="M185.495 178V176.425L189.545 172.6C189.865 172.31 190.1 172.05 190.25 171.82C190.4 171.59 190.5 171.38 190.55 171.19C190.61 171 190.64 170.825 190.64 170.665C190.64 170.245 190.495 169.925 190.205 169.705C189.925 169.475 189.51 169.36 188.96 169.36C188.52 169.36 188.11 169.445 187.73 169.615C187.36 169.785 187.045 170.05 186.785 170.41L185.015 169.27C185.415 168.67 185.975 168.195 186.695 167.845C187.415 167.495 188.245 167.32 189.185 167.32C189.965 167.32 190.645 167.45 191.225 167.71C191.815 167.96 192.27 168.315 192.59 168.775C192.92 169.235 193.085 169.785 193.085 170.425C193.085 170.765 193.04 171.105 192.95 171.445C192.87 171.775 192.7 172.125 192.44 172.495C192.19 172.865 191.82 173.28 191.33 173.74L187.97 176.905L187.505 176.02H193.43V178H185.495ZM197.838 178.18C197.108 178.18 196.383 178.085 195.663 177.895C194.943 177.695 194.333 177.415 193.833 177.055L194.778 175.195C195.178 175.485 195.643 175.715 196.173 175.885C196.703 176.055 197.238 176.14 197.778 176.14C198.388 176.14 198.868 176.02 199.218 175.78C199.568 175.54 199.743 175.21 199.743 174.79C199.743 174.39 199.588 174.075 199.278 173.845C198.968 173.615 198.468 173.5 197.778 173.5H196.668V171.895L199.593 168.58L199.863 169.45H194.358V167.5H201.708V169.075L198.798 172.39L197.568 171.685H198.273C199.563 171.685 200.538 171.975 201.198 172.555C201.858 173.135 202.188 173.88 202.188 174.79C202.188 175.38 202.033 175.935 201.723 176.455C201.413 176.965 200.938 177.38 200.298 177.7C199.658 178.02 198.838 178.18 197.838 178.18ZM204.69 172.735C204.29 172.735 203.945 172.6 203.655 172.33C203.375 172.05 203.235 171.695 203.235 171.265C203.235 170.835 203.375 170.49 203.655 170.23C203.945 169.96 204.29 169.825 204.69 169.825C205.1 169.825 205.445 169.96 205.725 170.23C206.005 170.49 206.145 170.835 206.145 171.265C206.145 171.695 206.005 172.05 205.725 172.33C205.445 172.6 205.1 172.735 204.69 172.735ZM204.69 178.12C204.29 178.12 203.945 177.985 203.655 177.715C203.375 177.435 203.235 177.08 203.235 176.65C203.235 176.22 203.375 175.875 203.655 175.615C203.945 175.345 204.29 175.21 204.69 175.21C205.1 175.21 205.445 175.345 205.725 175.615C206.005 175.875 206.145 176.22 206.145 176.65C206.145 177.08 206.005 177.435 205.725 177.715C205.445 177.985 205.1 178.12 204.69 178.12ZM211.735 178.18C210.875 178.18 210.105 177.97 209.425 177.55C208.745 177.12 208.21 176.5 207.82 175.69C207.43 174.88 207.235 173.9 207.235 172.75C207.235 171.6 207.43 170.62 207.82 169.81C208.21 169 208.745 168.385 209.425 167.965C210.105 167.535 210.875 167.32 211.735 167.32C212.605 167.32 213.375 167.535 214.045 167.965C214.725 168.385 215.26 169 215.65 169.81C216.04 170.62 216.235 171.6 216.235 172.75C216.235 173.9 216.04 174.88 215.65 175.69C215.26 176.5 214.725 177.12 214.045 177.55C213.375 177.97 212.605 178.18 211.735 178.18ZM211.735 176.125C212.145 176.125 212.5 176.01 212.8 175.78C213.11 175.55 213.35 175.185 213.52 174.685C213.7 174.185 213.79 173.54 213.79 172.75C213.79 171.96 213.7 171.315 213.52 170.815C213.35 170.315 213.11 169.95 212.8 169.72C212.5 169.49 212.145 169.375 211.735 169.375C211.335 169.375 210.98 169.49 210.67 169.72C210.37 169.95 210.13 170.315 209.95 170.815C209.78 171.315 209.695 171.96 209.695 172.75C209.695 173.54 209.78 174.185 209.95 174.685C210.13 175.185 210.37 175.55 210.67 175.78C210.98 176.01 211.335 176.125 211.735 176.125ZM221.916 178.18C221.056 178.18 220.286 177.97 219.606 177.55C218.926 177.12 218.391 176.5 218.001 175.69C217.611 174.88 217.416 173.9 217.416 172.75C217.416 171.6 217.611 170.62 218.001 169.81C218.391 169 218.926 168.385 219.606 167.965C220.286 167.535 221.056 167.32 221.916 167.32C222.786 167.32 223.556 167.535 224.226 167.965C224.906 168.385 225.441 169 225.831 169.81C226.221 170.62 226.416 171.6 226.416 172.75C226.416 173.9 226.221 174.88 225.831 175.69C225.441 176.5 224.906 177.12 224.226 177.55C223.556 177.97 222.786 178.18 221.916 178.18ZM221.916 176.125C222.326 176.125 222.681 176.01 222.981 175.78C223.291 175.55 223.531 175.185 223.701 174.685C223.881 174.185 223.971 173.54 223.971 172.75C223.971 171.96 223.881 171.315 223.701 170.815C223.531 170.315 223.291 169.95 222.981 169.72C222.681 169.49 222.326 169.375 221.916 169.375C221.516 169.375 221.161 169.49 220.851 169.72C220.551 169.95 220.311 170.315 220.131 170.815C219.961 171.315 219.876 171.96 219.876 172.75C219.876 173.54 219.961 174.185 220.131 174.685C220.311 175.185 220.551 175.55 220.851 175.78C221.161 176.01 221.516 176.125 221.916 176.125ZM185.36 199.07L186.11 197.33C186.56 197.6 187.04 197.81 187.55 197.96C188.07 198.1 188.575 198.18 189.065 198.2C189.565 198.21 190.015 198.16 190.415 198.05C190.825 197.94 191.15 197.775 191.39 197.555C191.64 197.335 191.765 197.055 191.765 196.715C191.765 196.315 191.6 196.02 191.27 195.83C190.94 195.63 190.5 195.53 189.95 195.53H187.385V193.7H189.77C190.26 193.7 190.64 193.6 190.91 193.4C191.19 193.2 191.33 192.925 191.33 192.575C191.33 192.275 191.23 192.035 191.03 191.855C190.83 191.665 190.555 191.525 190.205 191.435C189.865 191.345 189.48 191.305 189.05 191.315C188.62 191.325 188.175 191.395 187.715 191.525C187.255 191.655 186.815 191.835 186.395 192.065L185.66 190.19C186.34 189.84 187.055 189.6 187.805 189.47C188.565 189.33 189.295 189.295 189.995 189.365C190.705 189.425 191.345 189.585 191.915 189.845C192.485 190.095 192.94 190.425 193.28 190.835C193.62 191.245 193.79 191.73 193.79 192.29C193.79 192.79 193.66 193.235 193.4 193.625C193.14 194.015 192.775 194.315 192.305 194.525C191.845 194.735 191.315 194.84 190.715 194.84L190.775 194.3C191.475 194.3 192.08 194.42 192.59 194.66C193.11 194.89 193.51 195.215 193.79 195.635C194.08 196.045 194.225 196.52 194.225 197.06C194.225 197.56 194.09 198.01 193.82 198.41C193.56 198.8 193.2 199.13 192.74 199.4C192.28 199.67 191.755 199.87 191.165 200C190.575 200.13 189.945 200.185 189.275 200.165C188.615 200.145 187.95 200.05 187.28 199.88C186.61 199.7 185.97 199.43 185.36 199.07ZM194.964 200L199.644 189.5H202.044L206.739 200H204.189L200.349 190.73H201.309L197.454 200H194.964ZM197.304 197.75L197.949 195.905H203.349L204.009 197.75H197.304ZM208.131 200V189.5H213.021C214.241 189.5 215.191 189.735 215.871 190.205C216.551 190.675 216.891 191.345 216.891 192.215C216.891 193.075 216.571 193.745 215.931 194.225C215.291 194.695 214.441 194.93 213.381 194.93L213.666 194.3C214.846 194.3 215.761 194.535 216.411 195.005C217.061 195.475 217.386 196.155 217.386 197.045C217.386 197.965 217.036 198.69 216.336 199.22C215.646 199.74 214.636 200 213.306 200H208.131ZM210.546 198.2H213.216C213.776 198.2 214.201 198.09 214.491 197.87C214.781 197.65 214.926 197.31 214.926 196.85C214.926 196.41 214.781 196.085 214.491 195.875C214.201 195.655 213.776 195.545 213.216 195.545H210.546V198.2ZM210.546 193.85H212.811C213.341 193.85 213.741 193.745 214.011 193.535C214.281 193.315 214.416 192.995 214.416 192.575C214.416 192.155 214.281 191.84 214.011 191.63C213.741 191.41 213.341 191.3 212.811 191.3H210.546V193.85ZM221.543 193.73H226.598V195.62H221.543V193.73ZM221.723 198.05H227.438V200H219.308V189.5H227.243V191.45H221.723V198.05ZM229.401 200V189.5H233.946C234.886 189.5 235.696 189.655 236.376 189.965C237.056 190.265 237.581 190.7 237.951 191.27C238.321 191.84 238.506 192.52 238.506 193.31C238.506 194.09 238.321 194.765 237.951 195.335C237.581 195.905 237.056 196.345 236.376 196.655C235.696 196.955 234.886 197.105 233.946 197.105H230.751L231.831 196.01V200H229.401ZM231.831 196.28L230.751 195.125H233.811C234.561 195.125 235.121 194.965 235.491 194.645C235.861 194.325 236.046 193.88 236.046 193.31C236.046 192.73 235.861 192.28 235.491 191.96C235.121 191.64 234.561 191.48 233.811 191.48H230.751L231.831 190.325V196.28ZM246.379 198.02L245.839 198.575V189.5H248.254V198.575L247.684 198.02H252.124L251.554 198.575V189.5H253.969V200H240.109V189.5H242.524V198.575L241.969 198.02H246.379ZM258.809 193.73H263.864V195.62H258.809V193.73ZM258.989 198.05H264.704V200H256.574V189.5H264.509V191.45H258.989V198.05ZM273.866 189.5H276.296V200H273.866V189.5ZM269.096 200H266.666V189.5H269.096V200ZM274.046 195.695H268.916V193.64H274.046V195.695ZM278.927 200V189.5H281.342V196.34L286.352 189.5H288.632V200H286.232V193.175L281.222 200H278.927ZM293.481 193.73H298.536V195.62H293.481V193.73ZM293.661 198.05H299.376V200H291.246V189.5H299.181V191.45H293.661V198.05ZM186.305 222V211.5H191.195C192.415 211.5 193.365 211.735 194.045 212.205C194.725 212.675 195.065 213.345 195.065 214.215C195.065 215.075 194.745 215.745 194.105 216.225C193.465 216.695 192.615 216.93 191.555 216.93L191.84 216.3C193.02 216.3 193.935 216.535 194.585 217.005C195.235 217.475 195.56 218.155 195.56 219.045C195.56 219.965 195.21 220.69 194.51 221.22C193.82 221.74 192.81 222 191.48 222H186.305ZM188.72 220.2H191.39C191.95 220.2 192.375 220.09 192.665 219.87C192.955 219.65 193.1 219.31 193.1 218.85C193.1 218.41 192.955 218.085 192.665 217.875C192.375 217.655 191.95 217.545 191.39 217.545H188.72V220.2ZM188.72 215.85H190.985C191.515 215.85 191.915 215.745 192.185 215.535C192.455 215.315 192.59 214.995 192.59 214.575C192.59 214.155 192.455 213.84 192.185 213.63C191.915 213.41 191.515 213.3 190.985 213.3H188.72V215.85ZM199.717 215.73H204.772V217.62H199.717V215.73ZM199.897 220.05H205.612V222H197.482V211.5H205.417V213.45H199.897V220.05ZM214.145 218.085C213.625 218.295 213.125 218.455 212.645 218.565C212.165 218.665 211.705 218.715 211.265 218.715C209.855 218.715 208.775 218.38 208.025 217.71C207.275 217.03 206.9 216.055 206.9 214.785V211.5H209.3V214.515C209.3 215.235 209.495 215.78 209.885 216.15C210.275 216.51 210.83 216.69 211.55 216.69C212.01 216.69 212.455 216.64 212.885 216.54C213.315 216.43 213.715 216.275 214.085 216.075L214.145 218.085ZM213.8 222V211.5H216.2V222H213.8ZM221.045 215.73H226.1V217.62H221.045V215.73ZM221.225 220.05H226.94V222H218.81V211.5H226.745V213.45H221.225V220.05ZM228.903 222V211.5H233.448C234.388 211.5 235.198 211.655 235.878 211.965C236.558 212.265 237.083 212.7 237.453 213.27C237.823 213.84 238.008 214.52 238.008 215.31C238.008 216.09 237.823 216.765 237.453 217.335C237.083 217.905 236.558 218.345 235.878 218.655C235.198 218.955 234.388 219.105 233.448 219.105H230.253L231.333 218.01V222H228.903ZM231.333 218.28L230.253 217.125H233.313C234.063 217.125 234.623 216.965 234.993 216.645C235.363 216.325 235.548 215.88 235.548 215.31C235.548 214.73 235.363 214.28 234.993 213.96C234.623 213.64 234.063 213.48 233.313 213.48H230.253L231.333 212.325V218.28ZM237.898 222L242.578 211.5H244.978L249.673 222H247.123L243.283 212.73H244.243L240.388 222H237.898ZM240.238 219.75L240.883 217.905H246.283L246.943 219.75H240.238Z" fill="black"/>
</svg>
