<svg width="58" height="58" viewBox="0 0 58 58" fill="none" xmlns="http://www.w3.org/2000/svg">
<path d="M19.5942 49V46.5H26.7295V35.1925C23.0873 34.6425 20.2219 33.08 18.1331 30.505C16.0444 27.93 15 24.9283 15 21.5V9H41V21.5C41 24.93 39.9556 27.9317 37.8669 30.505C35.7781 33.0783 32.9127 34.6408 29.2705 35.1925V46.5H36.4058V49H19.5942ZM34.9599 29.855C36.9335 27.925 38.0702 25.5567 38.37 22.75H17.63C17.9298 25.5583 19.0674 27.9267 21.0426 29.855C23.0179 31.7833 25.337 32.7483 28 32.75C30.663 32.7517 32.983 31.7867 34.9599 29.855ZM17.541 20.25H38.459V11.5H17.5436L17.541 20.25Z" fill="#404040"/>
</svg>
